<svg version="1.1" id="Capa_1" x="0px" y="0px" viewBox="0 0 512 512" style="enable-background:new 0 0 512 512;" xml:space="preserve">
		<path d="M 289.57617,6.0175781 C 267.06072,6.2974564 244.57388,10.044217 223.25252,17.309174 197.822,25.907397 174.10114,39.461364 153.69527,56.895686 128.23322,78.590071 107.78774,106.22013 94.882522,137.10522 83.37496,164.46289 77.823028,194.25875 78.40157,223.91885 c 0.546941,31.3183 8.009465,62.52836 21.95937,90.58994 8.3276,16.83661 18.92423,32.53393 31.33493,46.62903 0.9907,1.14742 1.9814,2.29484 2.9721,3.44226 -42.203857,42.20535 -84.416274,84.40455 -126.5878919,126.64062 -3.2343587,3.702 -2.576986,10.09461 1.4832924,12.93372 3.2495985,2.52314 8.2801875,2.4612 11.3283415,-0.37019 1.52594,-1.28451 2.801538,-2.80774 4.197595,-4.13039 40.790149,-40.76959 81.561403,-81.55847 122.344283,-122.33548 9.27574,8.27198 19.0457,16.02239 29.53513,22.70705 21.85122,14.05045 46.3157,24.01545 71.76749,29.22513 25.55863,5.25066 52.07028,5.77557 77.83123,1.65742 27.72232,-4.43414 54.53649,-14.45418 78.35708,-29.31555 34.36737,-21.41668 62.5677,-52.66801 80.11373,-89.18333 10.64431,-22.11248 17.36384,-46.09441 19.82967,-70.5093 3.00391,-29.40686 -0.0122,-59.44086 -9.05385,-87.59683 C 486.22962,124.25034 469.71622,96.476848 448.0995,73.5228 428.66363,52.802894 405.12297,35.918639 379.15536,24.372801 354.11407,13.206167 326.88541,7.0177046 299.48665,6.1389464 296.1845,6.0271578 292.88018,5.9982702 289.57617,6.0175781 Z m 2.59766,18.1035159 c 19.30334,-0.0019 38.59612,2.879413 57.07226,8.46289 0.89925,0.285048 2.068,0.643966 3.07032,0.958985 23.67672,7.572146 45.86874,19.745932 64.96061,35.666886 10.13548,8.434321 19.42113,17.88905 27.6761,28.171004 8.66848,10.790311 16.28646,22.633971 22.46874,35.088291 4.4879,9.03646 8.33073,18.58752 11.38159,28.27725 0.41627,1.37657 0.85069,2.74317 1.2199,4.0426 4.47814,15.38193 7.05268,31.31216 7.69931,47.31842 0.0301,0.88882 0.0647,2.06579 0.0965,3.0653 0.10136,4.41243 0.0572,8.8276 -0.12388,13.23744 -0.0504,0.88797 -0.10822,2.06397 -0.16147,3.06258 -0.76647,12.88455 -2.83587,25.84726 -6.08462,38.23624 -0.60471,2.26608 -1.23399,4.55278 -1.8931,6.72115 -4.21474,14.07957 -10.10605,27.82124 -17.33542,40.49956 -4.04848,7.07973 -8.54453,13.90088 -13.43945,20.42383 -1.08457,1.43164 -2.23164,2.92451 -3.37912,4.36285 -19.95539,25.02387 -46.04524,45.19087 -75.48825,57.80259 -11.64531,5.02031 -23.78457,8.88428 -36.17755,11.56893 -1.06117,0.21193 -2.36479,0.50344 -3.52917,0.72223 -1.806,0.35652 -3.4765,0.65913 -5.31577,0.97437 -18.1706,3.07196 -36.77046,3.55679 -55.07889,1.46356 -0.83813,-0.1049 -2.1181,-0.26115 -2.95508,-0.35938 -19.73569,-2.56639 -39.31012,-8.17329 -57.45313,-16.61647 -26.30903,-12.23195 -49.76918,-30.47265 -68.24609,-52.83079 -0.615,-0.76751 -1.41754,-1.7344 -2.09645,-2.58677 -16.1648,-20.22672 -28.2127,-43.71924 -35.218,-68.64566 -0.35585,-1.28611 -0.77907,-2.80508 -1.12734,-4.18961 -1.46606,-5.64477 -2.68765,-11.50379 -3.624613,-17.16585 -0.514121,-3.17045 -0.974996,-6.41386 -1.322831,-9.52574 -1.18937,-10.37569 -1.544295,-20.98988 -1.083419,-31.33169 0.371716,-8.18413 1.243921,-16.34539 2.619141,-24.42187 0.265819,-1.54032 0.585051,-3.30051 0.903712,-4.91903 3.40631,-17.3592 9.20577,-34.24346 17.16855,-50.03996 0.64962,-1.28656 1.42225,-2.77419 2.14233,-4.12521 7.48344,-14.00265 16.78953,-27.26585 27.51883,-39.077992 22.27055,-24.595235 50.85695,-43.475266 82.33932,-54.007462 3.42672,-1.155229 6.79631,-2.182863 10.29249,-3.152613 2.5504,-0.70739 5.28226,-1.399278 7.92383,-2.015625 9.58195,-2.219203 19.48589,-3.75934 29.35453,-4.518528 2.83113,-0.222627 5.59164,-0.375594 8.46247,-0.476944 2.17549,-0.07915 4.51759,-0.114172 6.76308,-0.119762 z"   style="stroke-width:0;stroke-miterlimit:4;stroke-dasharray:none" />
</svg>
